<svg viewBox="0 0 168 192" fill="none" xmlns="http://www.w3.org/2000/svg">
<path d="M63.2073 167.532C63.2073 145.452 63.1729 124.231 63.2416 103.01C63.2416 100.606 62.3488 99.7474 60.0481 99.9535C58.915 100.056 57.7131 99.7818 56.6143 99.9878C51.2918 101.052 50.6394 98.4426 50.502 93.7725C50.3647 88.4844 52.0816 87.4199 57.0607 87.4542C81.235 87.729 105.409 87.6603 129.618 87.4886C133.704 87.4542 135.353 88.5187 134.7 92.6394C134.494 93.9099 134.563 95.2834 134.7 96.5883C134.94 99.1293 133.945 99.9535 131.369 100.056C122.407 100.4 122.407 100.503 122.407 109.603C122.407 127.871 122.407 146.104 122.407 164.373C122.407 165.952 122.407 167.532 122.407 169.661C135.284 165.059 145.723 157.848 154.307 148.096C156.745 145.315 157.844 145.074 160.488 147.821C169.416 157.058 169.725 157.161 159.767 165.78C130.923 190.745 97.9922 197.921 62.3488 184.564C26.362 171.103 5.51854 144.078 0.711146 105.791C-4.4053 64.9968 18.4985 25.4732 56.1335 8.47561C93.8373 -8.55631 138.34 0.646423 165.983 31.0017C168.455 33.7144 168.627 35.294 165.742 37.5947C162.823 39.964 160.557 44.4281 157.467 44.9431C154.616 45.4239 152.556 40.4104 149.912 38.0411C125.291 16.2018 97.1338 9.9865 66.5725 22.0393C36.6293 33.7831 19.2883 56.8929 16.8159 89.1025C14.2062 122.789 29.1091 148.096 58.1595 165.128C59.5674 165.918 61.0783 166.502 63.2073 167.532ZM110.148 109.946C109.77 109.774 109.427 109.568 109.049 109.397C106.439 112.075 103.898 114.891 101.151 117.432C99.4001 119.046 98.9194 120.831 98.9537 123.132C99.0224 138.893 98.988 154.655 99.0224 170.416C99.0224 172.236 98.3699 175.189 101.598 174.159C104.517 173.266 109.976 176.013 110.045 170.347C110.354 150.259 110.148 130.103 110.148 109.946ZM86.6948 132.369C83.3983 135.597 79.2777 137.485 79.0373 140.885C78.3849 150.878 78.6253 160.904 78.8313 170.931C78.9 174.331 82.2995 173.06 84.2911 173.61C85.8707 174.056 86.6948 173.404 86.6948 171.618C86.6605 158.913 86.6948 146.173 86.6948 132.369Z" fill="#334480"/>
<path d="M92.3606 78.8352C76.0842 78.8352 59.8077 78.7322 43.5313 78.9039C39.8227 78.9383 37.8997 78.1828 38.5865 74.1309C38.7582 73.1694 38.7239 72.1392 38.5865 71.1778C38.0027 67.4692 39.445 66.4734 43.1535 66.4734C64.0314 66.6451 84.9092 66.5764 105.787 66.5421C117.943 66.5421 130.133 66.6451 142.289 66.4734C145.585 66.439 146.89 67.1601 146.822 70.7657C146.65 78.7666 146.856 78.8009 138.718 78.8009C123.265 78.8352 107.813 78.8352 92.3606 78.8352Z" fill="#334480"/>
<path d="M91.8456 56.3435C83.9821 56.0344 77.6982 49.2011 78.0415 41.4062C78.3849 33.577 85.184 27.2587 93.0131 27.4991C100.842 27.7395 107.264 34.5042 107.058 42.299C106.817 50.4372 100.053 56.6869 91.8456 56.3435Z" fill="#334480"/>
</svg>
