<svg viewBox="0 0 14 14" fill="none" xmlns="http://www.w3.org/2000/svg">
<path d="M2.33333 4.66667C2.6555 4.66667 2.91667 4.4055 2.91667 4.08333C2.91667 3.76117 2.6555 3.5 2.33333 3.5C2.01117 3.5 1.75 3.76117 1.75 4.08333C1.75 4.4055 2.01117 4.66667 2.33333 4.66667Z" fill="#999999"/>
<path d="M2.33333 7.58333C2.6555 7.58333 2.91667 7.32217 2.91667 7C2.91667 6.67784 2.6555 6.41667 2.33333 6.41667C2.01117 6.41667 1.75 6.67784 1.75 7C1.75 7.32217 2.01117 7.58333 2.33333 7.58333Z" fill="#999999"/>
<path d="M2.33333 10.5C2.6555 10.5 2.91667 10.2388 2.91667 9.91667C2.91667 9.5945 2.6555 9.33334 2.33333 9.33334C2.01117 9.33334 1.75 9.5945 1.75 9.91667C1.75 10.2388 2.01117 10.5 2.33333 10.5Z" fill="#999999"/>
<path d="M11.7017 6.41667H4.63171C4.32887 6.41667 4.08337 6.66216 4.08337 6.965V7.035C4.08337 7.33784 4.32887 7.58333 4.63171 7.58333H11.7017C12.0045 7.58333 12.25 7.33784 12.25 7.035V6.965C12.25 6.66216 12.0045 6.41667 11.7017 6.41667Z" fill="#999999"/>
<path d="M11.7017 9.33334H4.63171C4.32887 9.33334 4.08337 9.57883 4.08337 9.88167V9.95167C4.08337 10.2545 4.32887 10.5 4.63171 10.5H11.7017C12.0045 10.5 12.25 10.2545 12.25 9.95167V9.88167C12.25 9.57883 12.0045 9.33334 11.7017 9.33334Z" fill="#999999"/>
<path d="M11.7017 3.5H4.63171C4.32887 3.5 4.08337 3.7455 4.08337 4.04833V4.11833C4.08337 4.42117 4.32887 4.66667 4.63171 4.66667H11.7017C12.0045 4.66667 12.25 4.42117 12.25 4.11833V4.04833C12.25 3.7455 12.0045 3.5 11.7017 3.5Z" fill="#999999"/>
</svg>
