<svg width="26" height="23" viewBox="0 0 26 23" fill="none" xmlns="http://www.w3.org/2000/svg">
<path d="M25.2648 6.68588H0V19.4746C0 21.2637 1.45036 22.7143 3.23947 22.7143H25.2648C25.5512 22.7143 25.7836 22.4819 25.7836 22.1953V7.20461C25.7836 6.918 25.5512 6.68588 25.2648 6.68588Z" fill="#64BDFF"/>
<path d="M25.7837 7.20481V22.1955C25.7837 22.4819 25.5514 22.7143 25.265 22.7143H23.957C24.2434 22.7143 24.4758 22.4819 24.4758 22.1955V7.20481C24.4758 6.91781 24.2434 6.68588 23.957 6.68588H25.265C25.5514 6.68588 25.7837 6.91781 25.7837 7.20481Z" fill="#43A3F9"/>
<path d="M4.55784 15.5108C4.55784 15.7974 4.32572 16.0295 4.03911 16.0295H3.23927C1.45036 16.0295 0 17.4799 0 19.269V3.23947C0 1.45036 1.45036 0 3.23947 0H4.03911C4.32552 0 4.55784 0.232318 4.55784 0.518732V15.5108Z" fill="#1685FB"/>
<path d="M23.3644 13.3963C23.3644 11.7465 22.0223 10.4045 20.3726 10.4045C18.7832 10.4045 17.4798 11.6503 17.3865 13.2167H15.5954C15.3806 13.2167 15.2065 13.3908 15.2065 13.6058V18.0504C15.2065 18.2652 15.3806 18.4395 15.5954 18.4395H20.04C20.255 18.4395 20.4291 18.2652 20.4291 18.0504V16.3868C22.0527 16.3565 23.3644 15.0271 23.3644 13.3963ZM20.3726 11.1825C21.5932 11.1825 22.5862 12.1757 22.5862 13.3963C22.5862 14.5981 21.6237 15.5785 20.4291 15.6086V13.6058C20.4291 13.3908 20.255 13.2167 20.04 13.2167H18.1667C18.2585 12.0799 19.2124 11.1825 20.3726 11.1825ZM19.6509 15.4888C18.9695 15.2529 18.4381 14.6935 18.2416 13.9949H19.6509V15.4888ZM15.9845 17.6613V13.9949H17.4408C17.671 15.1239 18.5393 16.0235 19.6509 16.2998V17.6613H15.9845Z" fill="#1685FB"/>
<path d="M22.6833 16.6569H21.8178C21.603 16.6569 21.4287 16.8311 21.4287 17.046C21.4287 17.261 21.603 17.4351 21.8178 17.4351H22.6833C22.8984 17.4351 23.0724 17.261 23.0724 17.046C23.0724 16.8311 22.8984 16.6569 22.6833 16.6569Z" fill="#1685FB"/>
<path d="M22.6833 17.6613H21.8178C21.603 17.6613 21.4287 17.8354 21.4287 18.0504C21.4287 18.2652 21.603 18.4393 21.8178 18.4393H22.6833C22.8984 18.4393 23.0724 18.2652 23.0724 18.0504C23.0724 17.8354 22.8984 17.6613 22.6833 17.6613Z" fill="#1685FB"/>
<path d="M6.71849 10.2495H7.34109C7.5559 10.2495 7.73019 10.0752 7.73019 9.86043C7.73019 9.64562 7.5559 9.47133 7.34109 9.47133H6.71849C6.50368 9.47133 6.32959 9.64562 6.32959 9.86043C6.32959 10.0752 6.50368 10.2495 6.71849 10.2495Z" fill="#1685FB"/>
<path d="M6.71849 11.383H9.7221C9.93691 11.383 10.1112 11.2089 10.1112 10.9939C10.1112 10.7791 9.93691 10.605 9.7221 10.605H6.71849C6.50368 10.605 6.32959 10.7791 6.32959 10.9939C6.32959 11.2089 6.50368 11.383 6.71849 11.383Z" fill="#1685FB"/>
<path d="M9.09935 10.2495H9.72195C9.93676 10.2495 10.111 10.0752 10.111 9.86043C10.111 9.64562 9.93676 9.47133 9.72195 9.47133H9.09935C8.88454 9.47133 8.71045 9.64562 8.71045 9.86043C8.71045 10.0752 8.88454 10.2495 9.09935 10.2495Z" fill="#1685FB"/>
<path d="M11.4804 10.2495H12.103C12.3178 10.2495 12.4921 10.0752 12.4921 9.86043C12.4921 9.64562 12.3178 9.47133 12.103 9.47133H11.4804C11.2656 9.47133 11.0913 9.64562 11.0913 9.86043C11.0913 10.0752 11.2656 10.2495 11.4804 10.2495Z" fill="#1685FB"/>
<path d="M6.71849 12.5082H9.7221C9.93691 12.5082 10.1112 12.3339 10.1112 12.1191C10.1112 11.9041 9.93691 11.73 9.7221 11.73H6.71849C6.50368 11.73 6.32959 11.9041 6.32959 12.1191C6.32959 12.3339 6.50368 12.5082 6.71849 12.5082Z" fill="#1685FB"/>
<path d="M6.71849 13.6332H11.4805C11.6953 13.6332 11.8696 13.4589 11.8696 13.2441C11.8696 13.0293 11.6953 12.855 11.4805 12.855H6.71849C6.50368 12.855 6.32959 13.0293 6.32959 13.2441C6.32959 13.4589 6.50368 13.6332 6.71849 13.6332Z" fill="#1685FB"/>
<path d="M6.71849 14.7582H12.1031C12.3179 14.7582 12.4922 14.5841 12.4922 14.3691C12.4922 14.1543 12.3179 13.98 12.1031 13.98H6.71849C6.50368 13.98 6.32959 14.1543 6.32959 14.3691C6.32959 14.5841 6.50368 14.7582 6.71849 14.7582Z" fill="#1685FB"/>
<path d="M7.79077 15.7927H6.71869C6.50368 15.7927 6.32959 15.9668 6.32959 16.1818V17.2539C6.32959 17.4689 6.50368 17.643 6.71869 17.643H7.79077C8.00558 17.643 8.17987 17.4687 8.17987 17.2539V16.1818C8.17987 15.9668 8.00558 15.7927 7.79077 15.7927ZM7.40168 16.8648H7.10759V16.5709H7.40168V16.8648Z" fill="#1685FB"/>
<path d="M10.363 15.7927H9.29095C9.07614 15.7927 8.90186 15.9668 8.90186 16.1818V17.2539C8.90186 17.4689 9.07614 17.643 9.29095 17.643H10.363C10.578 17.643 10.7521 17.4687 10.7521 17.2539V16.1818C10.7521 15.9668 10.578 15.7927 10.363 15.7927ZM9.97394 16.8648H9.68005V16.5709H9.97394V16.8648Z" fill="#1685FB"/>
<path d="M12.9358 15.7927H11.8635C11.6487 15.7927 11.4746 15.9668 11.4746 16.1818V17.2539C11.4746 17.4689 11.6487 17.643 11.8635 17.643H12.9358C13.1506 17.643 13.3249 17.4687 13.3249 17.2539V16.1818C13.3249 15.9668 13.1506 15.7927 12.9358 15.7927ZM12.5467 16.8648H12.2528V16.5709H12.5467V16.8648Z" fill="#1685FB"/>
<path d="M7.79077 18.5249H6.71869C6.50368 18.5249 6.32959 18.6991 6.32959 18.914V19.9862C6.32959 20.201 6.50368 20.3753 6.71869 20.3753H7.79077C8.00558 20.3753 8.17987 20.201 8.17987 19.9862V18.914C8.17987 18.6991 8.00558 18.5249 7.79077 18.5249ZM7.40168 19.5971H7.10759V19.3031H7.40168V19.5971Z" fill="#1685FB"/>
<path d="M10.363 18.5249H9.29095C9.07614 18.5249 8.90186 18.6991 8.90186 18.914V19.9862C8.90186 20.201 9.07614 20.3753 9.29095 20.3753H10.363C10.578 20.3753 10.7521 20.201 10.7521 19.9862V18.914C10.7521 18.6991 10.578 18.5249 10.363 18.5249ZM9.97394 19.5971H9.68005V19.3031H9.97394V19.5971Z" fill="#1685FB"/>
<path d="M12.9358 18.5249H11.8635C11.6487 18.5249 11.4746 18.6991 11.4746 18.914V19.9862C11.4746 20.201 11.6487 20.3753 11.8635 20.3753H12.9358C13.1506 20.3753 13.3249 20.201 13.3249 19.9862V18.914C13.3249 18.6991 13.1506 18.5249 12.9358 18.5249ZM12.5467 19.5971H12.2528V19.3031H12.5467V19.5971Z" fill="#1685FB"/>
<path d="M16.2367 10.8403L14.5662 11.6708C14.3797 11.7634 14.1761 11.5803 14.2483 11.3852L14.8953 9.63539L16.2367 10.8403Z" fill="#4E7693"/>
<path d="M16.5958 10.7376L23.3006 3.27349C23.442 3.11632 23.4292 2.87416 23.2717 2.73253L22.2047 1.77414C22.0471 1.63271 21.8052 1.64589 21.6637 1.80326L14.959 9.26733C14.8175 9.4249 14.8305 9.66666 14.9881 9.80829L16.0549 10.7667C16.2126 10.9081 16.4544 10.8953 16.5958 10.7376Z" fill="#C0FF66"/>
<path d="M16.5962 10.7376L23.301 3.2735C23.4424 3.11632 23.4296 2.87417 23.2721 2.73253L22.7386 2.25334L15.522 10.2875L16.0553 10.7667C16.213 10.9081 16.4548 10.8953 16.5962 10.7376Z" fill="#9BE058"/>
<path d="M22.5743 4.082L23.3006 3.2737C23.4419 3.11633 23.4293 2.87418 23.2715 2.73274L22.2047 1.77436C22.0472 1.63272 21.805 1.6459 21.6638 1.80327L20.9375 2.61176L22.5743 4.082Z" fill="#FD82AC"/>
</svg>
