<svg width="17" height="11" viewBox="0 0 17 11" fill="none" xmlns="http://www.w3.org/2000/svg">
<path d="M0.120477 5.71432L4.72682 10.6711C4.81205 10.7627 4.93158 10.8151 5.05677 10.8151H7.03617C7.42979 10.8151 7.6342 10.3458 7.36613 10.0575L3.04166 5.4077L7.36613 0.757861C7.6342 0.469634 7.42979 0.00033474 7.03617 0.00033474H5.05677C4.93158 0.00033474 4.81205 0.0523224 4.72682 0.144272L0.120477 5.10108C-0.0400815 5.27402 -0.0400815 5.54138 0.120477 5.71432Z" fill="#3B4859"/>
<path d="M4.98528 5.71434L9.59162 10.6708C9.67685 10.7627 9.79638 10.8147 9.92158 10.8147H11.901C12.2946 10.8147 12.499 10.3454 12.2309 10.0572L9.76526 7.40586L16.2707 7.40586C16.6612 7.40586 16.978 7.08899 16.978 6.69855V4.11582C16.978 3.72539 16.6612 3.40851 16.2707 3.40851L9.76562 3.40851L12.2313 0.757528C12.4994 0.4693 12.2949 9.53674e-07 11.9013 9.53674e-07H9.92193C9.79674 9.53674e-07 9.6772 0.0519886 9.59197 0.143939L4.98563 5.10075C4.82472 5.27368 4.82472 5.5414 4.98528 5.71434Z" fill="#3B4859"/>
</svg>
