<svg viewBox="0 0 31 36" fill="none" xmlns="http://www.w3.org/2000/svg">
<path d="M11.6237 30.8088C11.6237 26.7484 11.6174 22.8458 11.63 18.9433C11.63 18.5012 11.4658 18.3434 11.0427 18.3813C10.8344 18.4002 10.6133 18.3497 10.4113 18.3876C9.43247 18.5833 9.31249 18.1034 9.28723 17.2446C9.26197 16.2721 9.57771 16.0764 10.4934 16.0827C14.939 16.1332 19.3846 16.1206 23.8365 16.089C24.588 16.0827 24.8911 16.2784 24.7711 17.0362C24.7332 17.2699 24.7458 17.5225 24.7711 17.7624C24.8153 18.2297 24.6322 18.3813 24.1586 18.4002C22.5104 18.4634 22.5104 18.4823 22.5104 20.1557C22.5104 23.5152 22.5104 26.8683 22.5104 30.2278C22.5104 30.5183 22.5104 30.8088 22.5104 31.2003C24.8785 30.3541 26.7982 29.028 28.3769 27.2346C28.8252 26.7231 29.0273 26.6789 29.5135 27.1841C31.1554 28.8828 31.2122 28.9017 29.3809 30.4867C24.0765 35.0776 18.0206 36.3974 11.4658 33.9409C4.84793 31.4655 1.01485 26.4958 0.130778 19.4548C-0.810126 11.9528 3.40184 4.68447 10.3229 1.55865C17.2565 -1.57349 25.4405 0.118876 30.5239 5.70116C30.9786 6.20002 31.0101 6.4905 30.4797 6.9136C29.9429 7.34932 29.5262 8.17024 28.9578 8.26496C28.4337 8.35337 28.0548 7.43141 27.5686 6.99569C23.0409 2.97948 17.8627 1.8365 12.2426 4.05299C6.73605 6.21265 3.54708 10.4625 3.09242 16.3858C2.61249 22.5806 5.35311 27.2346 10.6954 30.3667C10.9543 30.512 11.2322 30.6193 11.6237 30.8088ZM20.256 20.2189C20.1866 20.1873 20.1234 20.1494 20.054 20.1178C19.574 20.6104 19.1067 21.1282 18.6016 21.5955C18.2795 21.8923 18.1911 22.2207 18.1974 22.6438C18.21 25.5422 18.2037 28.4407 18.21 31.3392C18.21 31.6739 18.0901 32.217 18.6836 32.0275C19.2204 31.8634 20.2245 32.3685 20.2371 31.3266C20.2939 27.6324 20.256 23.9257 20.256 20.2189ZM15.943 24.3424C15.3368 24.936 14.579 25.2833 14.5348 25.9085C14.4148 27.7461 14.459 29.59 14.4969 31.4339C14.5096 32.0591 15.1347 31.8255 15.501 31.9265C15.7915 32.0086 15.943 31.8886 15.943 31.5602C15.9367 29.2238 15.943 26.881 15.943 24.3424Z" fill="white"/>
<path d="M16.9849 14.4977C13.9917 14.4977 10.9985 14.4787 8.00529 14.5103C7.32329 14.5166 6.96967 14.3777 7.09596 13.6325C7.12754 13.4557 7.12122 13.2663 7.09596 13.0895C6.98861 12.4075 7.25383 12.2243 7.93583 12.2243C11.7752 12.2559 15.6146 12.2433 19.454 12.237C21.6895 12.237 23.9312 12.2559 26.1666 12.2243C26.7729 12.218 27.0128 12.3506 27.0002 13.0137C26.9686 14.485 27.0065 14.4913 25.5099 14.4913C22.6682 14.4977 19.8266 14.4977 16.9849 14.4977Z" fill="white"/>
<path d="M16.8903 10.3615C15.4442 10.3046 14.2886 9.04799 14.3517 7.61453C14.4149 6.17476 15.6652 5.01283 17.105 5.05704C18.5447 5.10124 19.7256 6.34526 19.6877 7.77871C19.6435 9.27532 18.3995 10.4246 16.8903 10.3615Z" fill="white"/>
</svg>
