<svg viewBox="0 0 143 36" fill="none" xmlns="http://www.w3.org/2000/svg">
<path d="M40.683 27.23C45.674 27.23 49.354 23.734 49.354 18.95C49.354 14.166 45.674 10.67 40.683 10.67C35.692 10.67 32.012 14.189 32.012 18.95C32.012 23.711 35.692 27.23 40.683 27.23ZM40.683 24.608C37.44 24.608 35.025 22.239 35.025 18.95C35.025 15.661 37.44 13.292 40.683 13.292C43.926 13.292 46.341 15.661 46.341 18.95C46.341 22.239 43.926 24.608 40.683 24.608ZM61.7463 27.23C66.1393 27.23 68.7843 24.677 68.7843 19.985V10.9H65.8403V19.87C65.8403 23.182 64.3683 24.608 61.7693 24.608C59.1703 24.608 57.6753 23.182 57.6753 19.87V10.9H54.6853V19.985C54.6853 24.677 57.3303 27.23 61.7463 27.23ZM86.6108 10.9V21.802L77.7328 10.9H75.2718V27H78.2388V16.098L87.1168 27H89.5778V10.9H86.6108ZM101.183 27.23C105.599 27.23 107.692 25.022 107.692 22.446C107.692 16.535 98.1469 18.766 98.1469 15.339C98.1469 14.12 99.1589 13.154 101.643 13.154C103.046 13.154 104.633 13.568 106.082 14.419L107.025 12.096C105.622 11.176 103.598 10.67 101.666 10.67C97.2499 10.67 95.1799 12.878 95.1799 15.477C95.1799 21.457 104.748 19.18 104.748 22.653C104.748 23.849 103.69 24.746 101.183 24.746C99.2049 24.746 97.1579 24.01 95.8699 22.975L94.8349 25.298C96.1689 26.448 98.6759 27.23 101.183 27.23ZM115.947 24.493V20.054H123.721V17.593H115.947V13.407H124.71V10.9H112.957V27H125.032V24.493H115.947ZM130.665 27H142.073V24.47H133.655V10.9H130.665V27Z" fill="white"/>
<path d="M11.6237 30.8088C11.6237 26.7484 11.6174 22.8458 11.63 18.9433C11.63 18.5012 11.4658 18.3434 11.0427 18.3813C10.8344 18.4002 10.6133 18.3497 10.4113 18.3876C9.43247 18.5833 9.31249 18.1034 9.28723 17.2446C9.26197 16.2721 9.57771 16.0764 10.4934 16.0827C14.939 16.1332 19.3846 16.1206 23.8365 16.089C24.588 16.0827 24.8911 16.2784 24.7711 17.0362C24.7332 17.2699 24.7458 17.5225 24.7711 17.7624C24.8153 18.2297 24.6322 18.3813 24.1586 18.4002C22.5104 18.4634 22.5104 18.4823 22.5104 20.1557C22.5104 23.5152 22.5104 26.8683 22.5104 30.2278C22.5104 30.5183 22.5104 30.8088 22.5104 31.2003C24.8785 30.3541 26.7982 29.028 28.3769 27.2346C28.8252 26.7231 29.0273 26.6789 29.5135 27.1841C31.1554 28.8828 31.2122 28.9017 29.3809 30.4867C24.0765 35.0776 18.0206 36.3974 11.4658 33.9409C4.84793 31.4655 1.01485 26.4958 0.130778 19.4548C-0.810126 11.9528 3.40184 4.68447 10.3229 1.55865C17.2565 -1.57349 25.4405 0.118876 30.5239 5.70116C30.9786 6.20002 31.0101 6.4905 30.4797 6.9136C29.9429 7.34932 29.5262 8.17024 28.9578 8.26496C28.4337 8.35337 28.0548 7.43141 27.5686 6.99569C23.0409 2.97948 17.8627 1.8365 12.2426 4.05299C6.73605 6.21265 3.54708 10.4625 3.09242 16.3858C2.61249 22.5806 5.35311 27.2346 10.6954 30.3667C10.9543 30.512 11.2322 30.6193 11.6237 30.8088ZM20.256 20.2189C20.1866 20.1873 20.1234 20.1494 20.054 20.1178C19.574 20.6104 19.1067 21.1282 18.6016 21.5955C18.2795 21.8923 18.1911 22.2207 18.1974 22.6438C18.21 25.5422 18.2037 28.4407 18.21 31.3392C18.21 31.6739 18.0901 32.217 18.6836 32.0275C19.2204 31.8634 20.2245 32.3685 20.2371 31.3266C20.2939 27.6324 20.256 23.9257 20.256 20.2189ZM15.943 24.3424C15.3368 24.936 14.579 25.2833 14.5348 25.9085C14.4148 27.7461 14.459 29.59 14.4969 31.4339C14.5096 32.0591 15.1347 31.8255 15.501 31.9265C15.7915 32.0086 15.943 31.8886 15.943 31.5602C15.9367 29.2238 15.943 26.881 15.943 24.3424Z" fill="white"/>
</svg>
