<svg width="136" height="35" viewBox="0 0 136 35" fill="none" xmlns="http://www.w3.org/2000/svg">
<path d="M38.8047 10.4052H41.5846C42.2908 10.4052 42.504 10.6389 42.3624 11.3432L39.7474 26.1136C39.6292 26.8163 39.3477 27.0517 38.6398 27.0517H35.86C35.1538 27.0517 34.9639 26.818 35.0821 26.1136L37.6971 11.3432C37.8387 10.6322 38.0985 10.4052 38.8047 10.4052Z" fill="#162542"/>
<path d="M57.4643 11.383L57.0879 13.4928C56.9697 14.2436 56.6632 14.5005 55.9103 14.5005H52.4226L50.3723 26.0589C50.2307 26.7865 49.9475 27.0434 49.1947 27.0434H46.5297C45.7752 27.0434 45.5637 26.7849 45.6969 26.0589L47.7473 14.5005H44.2462C43.4917 14.5005 43.3035 14.242 43.4134 13.4928L43.7898 11.383C43.9314 10.6555 44.2146 10.3986 44.9674 10.3986H56.6265C57.3927 10.4052 57.6059 10.6555 57.4643 11.383Z" fill="#162542"/>
<path d="M71.6701 16.2358C71.2704 18.5097 70.0445 19.9864 68.3006 20.8764C68.4728 21.2018 68.6225 21.5384 68.7487 21.884L70.1628 25.8932C70.3743 26.5263 70.1161 27.0417 69.33 27.0417H66.7933C65.5441 27.0417 65.0494 26.7368 64.8146 25.9164L63.8718 22.7044C63.612 21.9072 63.4471 21.5095 62.4111 21.5095H61.7982L60.997 26.0573C60.8554 26.7848 60.5723 27.0417 59.8195 27.0417H57.1545C56.4 27.0417 56.1885 26.7832 56.3217 26.0573L58.9234 11.383C59.0649 10.6555 59.3481 10.3986 60.1009 10.3986H66.8149C70.3743 10.4052 72.3297 12.6012 71.6701 16.2358ZM65.5674 14.5005H63.0474L62.4777 17.5948H65.0261C66.0154 17.5948 66.675 16.9849 66.8399 16.0236C67.0048 15.0624 66.5817 14.5005 65.5674 14.5005Z" fill="#162542"/>
<path d="M81.5188 10.0455C86.1608 10.0455 88.3277 12.8349 87.6215 16.8921L86.8903 21.1349C86.1591 25.1673 83.2627 27.3947 78.5974 27.3947C73.9321 27.3947 71.7884 24.675 72.4713 20.6195L73.2258 16.3766C73.9321 12.3443 76.8535 10.0455 81.5188 10.0455ZM80.8826 14.1491C79.2336 14.1491 78.1493 14.9231 77.8845 16.3998L77.0517 21.0404C76.7919 22.5171 77.593 23.2911 79.2436 23.2911C80.8942 23.2911 81.9535 22.5171 82.2117 21.0404L83.0445 16.3998C83.3093 14.9231 82.5082 14.1491 80.8826 14.1491Z" fill="#162542"/>
<path d="M103.381 18.4865L102.785 21.8857C102.195 25.2385 99.2739 27.3947 94.6336 27.3947C89.9933 27.3947 87.848 24.5341 88.5559 20.5018L89.3104 16.259C90.0166 12.1802 92.963 10.0455 97.6033 10.0455C101.231 10.0455 103.046 11.6631 103.541 14.2188C103.683 14.9215 103.471 15.2496 102.708 15.485L100.318 16.2059C99.5404 16.4396 99.2823 16.3004 99.1407 15.5728C98.9058 14.6116 98.2696 14.1425 96.9255 14.1425C95.0933 14.1425 94.2155 14.9397 93.9091 16.5805L93.1562 20.8465C92.8731 22.4873 93.4627 23.2845 95.2998 23.2845C96.8788 23.2845 97.9648 22.6978 98.1513 21.6901L98.2213 21.2211H95.9561C95.2016 21.2211 95.0134 20.9874 95.1233 20.2366L95.4298 18.4782C95.5713 17.7274 95.8545 17.4705 96.6073 17.4705H102.568C103.311 17.4788 103.523 17.7357 103.381 18.4865Z" fill="#162542"/>
<path d="M118.365 11.383L117.988 13.4928C117.847 14.2436 117.54 14.5005 116.811 14.5005H110.59L110.214 16.5871H115.185C115.94 16.5871 116.128 16.8457 116.018 17.5716L115.632 19.6864C115.49 20.4372 115.207 20.6941 114.454 20.6941H109.482L109.083 22.9448H115.515C116.246 22.9448 116.458 23.1784 116.316 23.9292L115.943 26.0589C115.825 26.7865 115.518 27.0434 114.766 27.0434H104.7C103.946 27.0434 103.734 26.7849 103.868 26.0589L106.468 11.383C106.609 10.6555 106.892 10.3986 107.645 10.3986H117.517C118.275 10.4052 118.483 10.6555 118.365 11.383Z" fill="#162542"/>
<path d="M128.871 18.745L124.812 10.5875L122.329 10.6405C122.329 10.6405 121.32 10.5842 121.053 11.5454L117.652 25.2253C117.652 25.2253 117.014 27.2041 118.608 27.2605L121.809 27.2257L123.438 20.2847C123.438 20.2847 123.846 19.2588 124.238 20.3825L128.428 27.2472L130.111 27.2108C130.111 27.2108 131.758 27.4942 132.289 25.5153L135.319 12.6824C135.319 12.6824 136.382 10.5908 134.256 10.5278L131.433 10.5875L129.669 18.8577C129.669 18.8577 129.245 19.8753 128.871 18.745Z" fill="#162542"/>
<path d="M12.2552 25.3413L7.89141 25.3247C6.27745 25.2717 6.92203 23.3972 6.92203 23.3972L10.3665 10.44C10.6363 9.52844 11.659 9.5765 11.659 9.5765H16.3659L16.3409 9.52347L17.84 4.00778H12.177C10.5913 4.00778 8.96738 3.70117 7.59826 4.61603C6.99052 5.02375 6.47359 5.55152 6.07959 6.16653C5.6856 6.78154 5.42299 7.47063 5.30808 8.19095L0.311316 26.7185C-0.926216 30.4128 1.92527 30.842 1.92527 30.842C1.92527 30.842 6.04594 30.9199 10.8212 30.9697C10.8895 30.6763 10.9877 30.3581 11.0977 30.015L12.2552 25.3413Z" fill="#162542"/>
<path d="M34.0861 5.67674C33.9362 5.0138 33.5864 4.29119 32.7536 4.16689C31.9958 4.05419 23.5379 3.96138 23.5379 3.96138C23.4531 4.32276 23.3497 4.67956 23.2281 5.03038L22.0039 9.5765H26.0813C28.2332 9.62954 27.1572 11.6117 27.1572 11.6117L24.0892 23.7668C23.5512 25.6413 21.8823 25.3728 21.8823 25.3728L17.8849 25.3579L17.8982 25.3844L16.4941 30.9796V30.9995C20.3466 31.0078 23.7444 30.973 24.8537 30.8338C27.8668 30.4592 28.6213 28.0494 28.6213 28.0494L33.3982 9.79693C33.7463 8.67656 34.3792 6.96617 34.0861 5.67674ZM24.6072 26.0225L24.7271 25.9064L24.6072 26.0225ZM24.7321 25.9015L24.8504 25.7788L24.7321 25.9015ZM29.8089 5.99993L29.7922 5.97175L29.8855 5.93363L29.8089 5.99993Z" fill="#162542"/>
<path d="M22.9051 0.640031C20.3768 -1.01733 18.8161 1.06763 18.8161 1.06763L17.8401 3.95972L17.8251 4.01275L16.326 9.52843L16.351 9.58147L19.3941 16.1148C19.7705 17.1854 20.2019 16.2225 20.2019 16.2225L22.004 9.5765L23.2299 5.0254C23.351 4.69182 23.4544 4.35215 23.5397 4.00778C24.2059 1.28971 22.9051 0.640031 22.9051 0.640031Z" fill="#162542"/>
<path d="M17.8816 25.3628L14.707 18.8577C14.3106 17.7937 13.8975 18.7649 13.8975 18.7649L12.2569 25.338L11.091 30.0084C10.9744 30.3515 10.8845 30.6713 10.8145 30.963C10.1599 33.759 11.4941 34.3921 11.4941 34.3921C14.0541 36.0064 15.5748 33.8949 15.5748 33.8949L16.4842 31.0061V30.9862L17.8883 25.391L17.8816 25.3628Z" fill="#162542"/>
</svg>
