<svg width="125" height="34" viewBox="0 0 125 34" fill="none" xmlns="http://www.w3.org/2000/svg">
<path d="M35.7401 9.99066H38.3001C38.9505 9.99066 39.1461 10.2165 39.0157 10.8923L36.6083 25.0872C36.5001 25.763 36.2393 25.9888 35.589 25.9888H33.0257C32.3754 25.9888 32.202 25.763 32.3102 25.0872L34.7176 10.8923C34.8512 10.2165 35.0929 9.99066 35.7401 9.99066Z" fill="white"/>
<path d="M52.9229 10.9368L52.5763 12.9642C52.4682 13.6845 52.1851 13.9326 51.4918 13.9326H48.2798L46.3923 25.0412C46.2619 25.7392 46.0012 25.9952 45.3079 25.9952H42.8559C42.161 25.9952 41.967 25.7472 42.0958 25.0412L43.9833 13.9326H40.7522C40.0573 13.9326 39.884 13.6845 39.9921 12.9642L40.3403 10.9368C40.4707 10.2387 40.7315 9.98273 41.4248 9.98273H52.1629C52.8577 9.99068 53.0517 10.2387 52.9229 10.9368Z" fill="white"/>
<path d="M66.0033 15.6006C65.6343 17.7854 64.507 19.2054 62.9009 20.0625C63.0595 20.3758 63.197 20.6993 63.3128 21.0309L64.6151 24.8837C64.8107 25.4927 64.5721 25.9873 63.855 25.9873H61.5128C60.3631 25.9873 59.9067 25.6947 59.6905 24.906L58.8223 21.8196C58.5838 21.0531 58.4311 20.6699 57.477 20.6699H56.9125L56.1747 25.0412C56.0443 25.7392 55.7836 25.9952 55.0903 25.9952H52.6399C51.945 25.9952 51.751 25.7472 51.8798 25.0412L54.265 10.9368C54.3954 10.2387 54.6562 9.98273 55.3495 9.98273H61.5318C64.8107 9.99068 66.6107 12.1087 66.0033 15.6006ZM60.3838 13.9326H58.0622L57.5422 16.9061H59.8845C60.7956 16.9061 61.403 16.3209 61.5557 15.3971C61.7083 14.4732 61.3172 13.9342 60.3838 13.9342V13.9326Z" fill="white"/>
<path d="M75.0718 9.65192C79.346 9.65192 81.3416 12.3329 80.6912 16.2318L80.0186 20.3105C79.346 24.1856 76.6794 26.3259 72.3861 26.3259C68.0927 26.3259 66.1162 23.7117 66.7459 19.8064L67.4344 15.7389C68.0848 11.8606 70.7753 9.65192 75.0718 9.65192ZM74.4866 13.5954C72.968 13.5954 71.9694 14.3396 71.7309 15.758L70.9709 20.2198C70.7323 21.6398 71.4701 22.3824 72.9887 22.3824C74.5073 22.3824 75.4836 21.6382 75.7221 20.2198L76.4822 15.758C76.7191 14.3396 75.9829 13.5954 74.485 13.5954H74.4866Z" fill="white"/>
<path d="M95.1994 17.7648L94.6572 21.0325C94.1149 24.254 91.4244 26.3275 87.1502 26.3275C82.876 26.3275 80.9026 23.5782 81.553 19.7031L82.2479 15.6245C82.8982 11.7032 85.611 9.65356 89.8804 9.65356C93.2197 9.65356 94.8925 11.2087 95.3473 13.6638C95.4777 14.3396 95.2821 14.6561 94.5888 14.8803L92.3817 15.5799C91.6661 15.8057 91.4276 15.6706 91.2972 14.9709C91.081 14.0471 90.5022 13.5971 89.2587 13.5971C87.5668 13.5971 86.7638 14.3635 86.4824 15.9409L85.7875 20.0323C85.5267 21.6097 86.0689 22.3761 87.7624 22.3761C89.2158 22.3761 90.2144 21.8132 90.3877 20.8432L90.4529 20.3932H88.3619C87.667 20.3932 87.4937 20.1674 87.6034 19.4392L87.8848 17.7648C88.0152 17.0444 88.276 16.7964 88.9693 16.7964H94.4584C95.1374 16.7948 95.333 17.0428 95.1994 17.7648Z" fill="white"/>
<path d="M109 10.9368L108.653 12.9642C108.523 13.6845 108.242 13.9326 107.569 13.9326H101.845L101.498 15.9377H106.076C106.771 15.9377 106.944 16.1858 106.836 16.8918L106.489 18.9192C106.359 19.6395 106.098 19.8876 105.405 19.8876H100.82L100.447 22.0454H106.37C107.043 22.0454 107.238 22.2711 107.108 22.9994L106.761 25.0491C106.653 25.7471 106.37 26.0032 105.677 26.0032H96.4174C95.7225 26.0032 95.5286 25.7551 95.6574 25.0491L98.0425 10.9447C98.1729 10.2467 98.4337 9.99066 99.127 9.99066H108.218C108.913 9.99066 109.108 10.2387 109 10.9368Z" fill="white"/>
<path d="M118.674 18.0128L114.936 10.1735L112.649 10.2244C112.649 10.2244 111.719 10.1703 111.474 11.0942L108.343 24.2429C108.343 24.2429 107.757 26.151 109.224 26.1987L112.172 26.1653L113.665 19.4964C113.665 19.4964 114.041 18.5105 114.402 19.5902L118.256 26.1844L119.805 26.1494C119.805 26.1494 121.322 26.4213 121.812 24.5196L124.601 12.1866C124.601 12.1866 125.579 10.1767 123.623 10.1194L121.034 10.1735L119.409 18.1241C119.409 18.1241 119.016 19.0988 118.674 18.0128Z" fill="white"/>
<path d="M11.2952 24.3542L7.27698 24.3383C5.79022 24.2874 6.38492 22.4858 6.38492 22.4858L9.55562 10.0304C9.80368 9.15584 10.745 9.20672 10.745 9.20672H15.0781L15.0574 9.15584L16.4313 3.85438H11.2284C9.7687 3.85438 8.2724 3.56021 7.01302 4.43795C6.44737 4.83744 5.9684 5.34725 5.60495 5.93669C5.2415 6.52614 5.00108 7.18304 4.89816 7.86784L0.286822 25.6772C-0.853293 29.2279 1.77358 29.6397 1.77358 29.6397C1.77358 29.6397 5.5676 29.7145 9.96428 29.7622C10.0279 29.4791 10.1106 29.1754 10.2187 28.8447L11.2952 24.3542Z" fill="white"/>
<path d="M31.3958 5.45248C31.2575 4.81643 30.9426 4.11996 30.1682 4.0007C29.4702 3.89257 21.6834 3.80353 21.6834 3.80353C21.6134 4.10247 21.5244 4.47774 21.3971 4.83074L20.2682 9.20516H24.0224C26.0037 9.25604 25.0131 11.161 25.0131 11.161L22.189 22.8436C21.6929 24.6452 20.1569 24.3876 20.1569 24.3876L16.4725 24.3733L16.4853 24.3987L15.1925 29.7765V29.7956C18.7385 29.8036 21.871 29.7686 22.8887 29.6366C25.6634 29.2756 26.3567 26.9604 26.3567 26.9604L30.7629 9.41347C31.0826 8.33696 31.6661 6.69277 31.3958 5.45248ZM22.6677 25.0109L22.7774 24.8996L22.6677 25.0109ZM22.7821 24.8949L22.8903 24.7772L22.7821 24.8949ZM27.4603 5.76414L27.446 5.73711L27.5318 5.70054L27.4603 5.76414Z" fill="white"/>
<path d="M21.0998 0.613752C18.7703 -0.976366 17.3344 1.02559 17.3344 1.02559L16.4424 3.80512L16.4296 3.856L15.0574 9.15587L15.0796 9.20675L17.8814 15.4845C18.2281 16.5133 18.624 15.5879 18.624 15.5879L20.2698 9.20675L21.3988 4.83234C21.5107 4.51143 21.6062 4.18503 21.685 3.85441C22.2972 1.23549 21.0998 0.613752 21.0998 0.613752Z" fill="white"/>
<path d="M16.4742 24.3749L13.5515 18.1241C13.1874 17.1017 12.8074 18.0351 12.8074 18.0351L11.2968 24.3526L10.2234 28.8415C10.1169 29.1722 10.0326 29.4775 9.96901 29.759C9.36636 32.4463 10.5939 33.0553 10.5939 33.0553C12.9505 34.6057 14.3514 32.5783 14.3514 32.5783L15.1878 29.8019V29.7828L16.4885 24.4003L16.4742 24.3749Z" fill="white"/>
</svg>
