<svg width="75" height="75" viewBox="0 0 75 75" fill="none" xmlns="http://www.w3.org/2000/svg">
<path d="M59.6191 75H15.3809C6.89985 75 0 68.1001 0 59.6191V15.3809C0 6.89985 6.89985 0 15.3809 0H59.6191C68.1001 0 75 6.89985 75 15.3809V59.6191C75 68.1001 68.1001 75 59.6191 75Z" fill="#162542"/>
<path d="M23.0932 57.7903C22.4157 58.9638 21.1821 59.6205 19.9155 59.6206C19.2945 59.6206 18.6658 59.4628 18.0906 59.1308C16.3419 58.1212 15.7405 55.877 16.7501 54.1283L17.4704 52.8809H25.9277L23.0932 57.7903Z" fill="white"/>
<path d="M16.1865 49.9517C14.1672 49.9517 12.5244 48.3089 12.5244 46.2896C12.5244 44.2703 14.1672 42.6275 16.1865 42.6275H23.3903L33.2713 25.5131L30.5934 20.8749C29.5838 19.1261 30.185 16.882 31.9337 15.8723H31.9339C33.6826 14.8627 35.9268 15.4642 36.9363 17.2128L37.5 18.1891L38.0637 17.2129C39.0737 15.464 41.3178 14.8628 43.0661 15.8724C43.9132 16.3615 44.5192 17.1512 44.7724 18.0961C45.0256 19.0409 44.8956 20.0279 44.4064 20.875L31.8476 42.6275H39.7693L43.998 49.9517H16.1865Z" fill="white"/>
<path d="M58.8136 49.9512H55.8383L58.2499 54.1282C59.2596 55.8768 58.6583 58.1209 56.9097 59.1306C56.3453 59.4564 55.7189 59.623 55.0844 59.623C54.7662 59.623 54.4463 59.5812 54.1306 59.4965C53.1856 59.2433 52.396 58.6373 51.9068 57.79L39.1914 35.7664L43.42 28.4421L51.6098 42.627H58.8136C60.8329 42.627 62.4757 44.2698 62.4757 46.2891C62.4757 48.3084 60.8329 49.9512 58.8136 49.9512Z" fill="white"/>
<path d="M37.5 42.627V49.9512H43.998L39.7695 42.627H37.5Z" fill="white"/>
<path d="M44.7724 18.0954C44.5191 17.1505 43.9132 16.3607 43.0661 15.8717C41.3177 14.8622 39.0735 15.4632 38.0637 17.2122L37.5 18.1884V32.8368L44.4064 20.8743C44.8956 20.0272 45.0256 19.0403 44.7724 18.0954Z" fill="white"/>
</svg>
