<svg width="27" height="27" viewBox="0 0 27 27" fill="none" xmlns="http://www.w3.org/2000/svg">
<rect width="27" height="27" fill="#162542"/>
<path d="M19.813 6.14704L18.537 7.423C17.223 6.50969 15.6557 6.00037 13.9998 6.00037C9.58857 6.00037 6 9.58895 6 14.0002C6 14.7815 6.11466 15.5588 6.34132 16.3108C6.41999 16.5714 6.69531 16.7254 6.96464 16.6454C7.2293 16.5654 7.37863 16.2868 7.2993 16.0221C7.10064 15.3641 6.99997 14.6835 6.99997 14.0002C6.99997 10.1403 10.1399 7.00035 13.9998 7.00035C15.3864 7.00035 16.703 7.405 17.821 8.13898L16.813 9.14696C16.4991 9.46095 16.7224 10.0003 17.1664 10.0003H20.1663C20.4423 10.0003 20.6663 9.77627 20.6663 9.50028V6.50036C20.6663 6.05504 20.1256 5.83305 19.813 6.14704Z" fill="white"/>
<path d="M21.6587 11.6895C21.5794 11.4255 21.2994 11.2762 21.0354 11.3549C20.7714 11.4349 20.6214 11.7135 20.7007 11.9782C20.8994 12.6362 21.0001 13.3168 21.0001 14.0001C21.0001 17.86 17.8601 20.9999 14.0003 20.9999C12.617 20.9999 11.3023 20.5973 10.1857 19.866L11.189 18.8513C11.501 18.536 11.277 18 10.8337 18H7.83375C7.70042 18 7.57176 18.0533 7.47843 18.1487C7.38443 18.2433 7.33243 18.372 7.33377 18.5053L7.3671 21.5053C7.37176 21.9499 7.91308 22.1652 8.22241 21.8512L9.47371 20.5853C10.7857 21.4933 12.349 21.9999 14.0003 21.9999C18.4115 21.9999 22 18.4113 22 14.0001C22 13.2188 21.8854 12.4415 21.6587 11.6895Z" fill="white"/>
<path d="M17.3335 16.0002C17.3335 16.7368 15.8409 17.3335 14.0002 17.3335C12.1596 17.3335 10.667 16.7368 10.667 16.0002V14.0002H17.3335V16.0002Z" fill="white"/>
<path d="M17.3335 14.0002C17.3335 14.7368 15.8409 15.3335 14.0002 15.3335C12.1596 15.3335 10.667 14.7361 10.667 14.0002V12.0002H17.3335V14.0002Z" fill="#162542"/>
<path d="M17.3335 12.0002C17.3335 12.7368 15.8409 13.3335 14.0002 13.3335C12.1596 13.3335 10.667 12.7362 10.667 12.0002C10.667 11.2642 12.1596 10.6669 14.0002 10.6669C15.8409 10.6669 17.3335 11.2642 17.3335 12.0002Z" fill="white"/>
</svg>
