<svg width="22" height="22" viewBox="0 0 22 22" fill="none" xmlns="http://www.w3.org/2000/svg">
<rect width="22" height="22" fill="#162542"/>
<g clip-path="url(#clip0)">
<path d="M15.8821 7.66664L13.3333 5.11786C13.3333 5.11784 13.3333 5.1178 13.3332 5.11778C13.26 5.0446 13.1576 5 13.0488 5C12.7261 5 5.70971 5 5.40245 5C5.18019 5 5 5.18019 5 5.40245V15.5976C5 15.8198 5.18019 16 5.40245 16C5.8872 16 15.121 16 15.5976 16C15.8198 16 16 15.8198 16 15.5976V7.95122C16 7.84449 15.9576 7.74214 15.8821 7.66664ZM8.35367 5.80487H12.6464V8.18583H8.35367V5.80487ZM13.6034 15.1951H7.39658V11.8092H13.6034V15.1951ZM15.1951 15.1951H14.4083V11.4067C14.4083 11.1845 14.2281 11.0043 14.0059 11.0043H6.99414C6.77188 11.0043 6.59169 11.1845 6.59169 11.4067V15.1951H5.80487V5.80487H7.54878V8.58828C7.54878 8.81053 7.72897 8.99072 7.95122 8.99072H13.0488C13.271 8.99072 13.4512 8.81053 13.4512 8.58828V6.37401L15.1951 8.11792V15.1951Z" fill="white"/>
<path d="M11.6498 6.18195C11.4275 6.18195 11.2473 6.36214 11.2473 6.58439V7.4063C11.2473 7.62857 11.4275 7.80874 11.6498 7.80874C11.872 7.80874 12.0522 7.62855 12.0522 7.4063V6.58439C12.0522 6.36214 11.872 6.18195 11.6498 6.18195Z" fill="white"/>
</g>
<defs>
<clipPath id="clip0">
<rect width="11" height="11" fill="white" transform="translate(5 5)"/>
</clipPath>
</defs>
</svg>
