<svg width="21" height="21" viewBox="0 0 21 21" fill="none" xmlns="http://www.w3.org/2000/svg">
<g clip-path="url(#clip0)">
<path d="M5.17191 13.9136L5.1719 13.912L5.1692 13.4963L19.2294 1.29065L20.4476 0.617483L20.3496 1.19701L9.98496 15.8516L9.07607 16.3173L9.02471 16.3436L8.99009 16.3897L5.82922 20.6032L5.8291 20.6034C5.61987 20.8827 5.1719 20.7338 5.1719 20.3844L5.17191 13.9136Z" fill="white" stroke="#162542" stroke-width="0.5"/>
<path d="M20.1484 0.0488786C20.1206 0.0599938 0.366392 9.97819 0.339568 9.99164C-0.0912193 10.207 -0.117715 10.8129 0.292113 11.0659L4.92138 13.9149L20.7801 0.149203C20.6188 0.00950358 20.3873 -0.0501331 20.1484 0.0488786Z" fill="#162542"/>
<path d="M20.8016 0.178015C20.7927 0.16936 20.7898 0.155948 20.7805 0.147827L20.6601 0.318452L9.18994 16.5397L16.2886 20.9083C16.6583 21.1355 17.1368 20.9188 17.2156 20.4979L20.9899 0.728813C21.03 0.520167 20.9455 0.318083 20.8016 0.178015Z" fill="#162542"/>
</g>
<defs>
<clipPath id="clip0">
<rect width="21" height="21" fill="white"/>
</clipPath>
</defs>
</svg>
