<?xml version="1.0" standalone="no"?>
<!DOCTYPE svg PUBLIC "-//W3C//DTD SVG 20010904//EN"
 "http://www.w3.org/TR/2001/REC-SVG-20010904/DTD/svg10.dtd">
<svg version="1.0" xmlns="http://www.w3.org/2000/svg"
 width="2764.000000pt" height="1050.000000pt" viewBox="0 0 2764.000000 1050.000000"
 preserveAspectRatio="xMidYMid meet">
<metadata>
Created by potrace 1.16, written by Peter Selinger 2001-2019
</metadata>
<g transform="translate(0.000000,1050.000000) scale(0.100000,-0.100000)"
fill="#fff" stroke="none">
<path d="M15455 10490 c-269 -18 -572 -75 -875 -165 -140 -42 -381 -127 -408
-144 -17 -11 -20 -182 -37 -3051 -8 -1312 -17 -2582 -20 -2824 -4 -305 -3
-437 4 -435 18 6 4531 4350 4531 4362 0 18 -141 278 -248 457 -596 997 -1321
1578 -2181 1750 -243 48 -515 66 -766 50z"/>
<path d="M12125 10429 c-1079 -46 -1963 -609 -2687 -1714 -58 -88 -134 -209
-168 -268 l-63 -109 449 -447 c247 -246 1251 -1248 2231 -2226 981 -978 1785
-1777 1787 -1774 4 4 76 5866 76 6162 l0 127 -27 11 c-65 25 -349 102 -494
134 -386 86 -737 119 -1104 104z"/>
<path d="M8824 8006 c-204 -109 -421 -253 -618 -410 -133 -105 -400 -374 -505
-506 -652 -822 -875 -1914 -685 -3355 15 -110 28 -201 29 -203 2 -2 1339 8
2972 22 1632 15 3050 26 3151 26 100 0 182 4 182 8 0 5 -970 987 -2156 2183
-1186 1196 -2181 2200 -2212 2231 l-57 58 -101 -54z"/>
<path d="M16634 5799 c-1221 -1228 -2220 -2235 -2222 -2239 -2 -4 129 -10 290
-14 629 -13 5991 -57 5998 -49 17 17 82 450 112 743 21 198 17 837 -5 1025
-85 711 -309 1272 -708 1776 -110 140 -375 402 -529 525 -189 150 -402 290
-651 428 l-66 36 -2219 -2231z"/>
<path d="M18585 2716 c-202 -47 -327 -139 -414 -306 -63 -120 -72 -169 -78
-392 l-5 -198 -149 0 -149 0 0 -185 0 -185 150 0 150 0 0 -700 0 -700 220 0
220 0 0 700 0 700 245 0 245 0 0 185 0 185 -245 0 -245 0 0 150 c0 175 10 234
53 297 48 71 106 96 226 101 87 4 245 -15 295 -34 15 -6 16 9 14 172 l-3 179
-70 18 c-94 25 -373 33 -460 13z"/>
<path d="M5220 1370 l0 -1320 181 2 182 3 21 88 21 87 28 -34 c45 -57 151
-126 245 -160 79 -28 98 -30 212 -31 145 0 221 19 355 88 91 48 207 155 269
250 211 324 221 862 21 1182 -63 102 -173 202 -277 253 -113 56 -183 73 -320
79 -168 8 -305 -26 -437 -107 -26 -17 -50 -30 -52 -30 -2 0 -3 218 -1 485 l4
485 -226 0 -226 0 0 -1320z m891 130 c120 -23 209 -94 264 -213 46 -97 65
-200 65 -347 0 -209 -49 -366 -146 -470 -143 -152 -377 -151 -566 4 l-58 47 0
427 0 427 43 26 c149 93 270 123 398 99z"/>
<path d="M10490 1370 l0 -1320 220 0 220 0 0 1320 0 1320 -220 0 -220 0 0
-1320z"/>
<path d="M11430 1370 l0 -1320 220 0 220 0 0 1320 0 1320 -220 0 -220 0 0
-1320z"/>
<path d="M15020 2450 l0 -240 235 0 235 0 0 240 0 240 -235 0 -235 0 0 -240z"/>
<path d="M2890 1853 c-127 -21 -273 -97 -372 -193 -43 -41 -78 -75 -78 -75 0
0 -40 231 -40 233 0 1 -82 1 -182 0 l-183 -3 -3 -883 -2 -882 225 0 225 0 0
609 0 609 63 58 c153 144 373 202 498 133 47 -26 94 -91 111 -156 7 -24 12
-262 15 -645 l5 -608 219 0 219 0 0 609 0 609 65 61 c71 66 191 130 284 151
127 30 239 -11 292 -106 43 -75 49 -169 49 -781 l0 -543 221 0 221 0 -5 653
c-4 552 -7 663 -21 727 -41 191 -161 330 -344 398 -52 19 -94 26 -183 29 -147
7 -239 -11 -369 -74 -82 -40 -108 -59 -186 -138 l-91 -92 -28 51 c-63 113
-194 207 -336 241 -59 14 -227 19 -289 8z"/>
<path d="M8023 1840 c-140 -37 -253 -118 -334 -240 -16 -24 -17 -21 -35 98
l-19 122 -182 0 -183 0 0 -885 0 -885 220 0 220 0 0 593 0 594 56 56 c99 100
255 159 454 173 l100 7 0 193 0 194 -112 -1 c-77 0 -136 -6 -185 -19z"/>
<path d="M9135 1845 c-320 -73 -531 -286 -627 -633 -19 -68 -22 -104 -22 -302
0 -261 10 -317 91 -480 39 -80 61 -109 137 -186 78 -78 106 -98 186 -137 193
-93 429 -126 698 -96 117 12 265 41 356 69 l66 21 0 174 c0 125 -3 175 -11
175 -7 0 -42 -9 -78 -20 -212 -63 -476 -87 -620 -56 -143 30 -260 105 -318
203 -30 52 -63 153 -63 194 l0 29 575 0 575 0 0 133 c0 502 -170 796 -520 897
-96 28 -333 37 -425 15z m295 -356 c98 -43 174 -155 186 -278 l7 -61 -338 0
-338 0 7 43 c10 60 67 176 110 219 100 102 240 131 366 77z"/>
<path d="M12775 1845 c-96 -16 -229 -51 -310 -83 l-50 -20 -3 -175 -2 -176
101 34 c269 91 514 108 655 45 55 -24 121 -84 146 -134 15 -28 23 -66 26 -122
l4 -81 -88 20 c-127 27 -389 29 -499 4 -242 -56 -415 -212 -469 -423 -21 -81
-21 -247 0 -328 61 -235 259 -387 529 -403 177 -11 364 52 500 168 66 57 73
55 74 -31 2 -97 -13 -90 210 -90 l196 0 -2 212 c-2 117 -4 409 -6 648 -4 473
-5 485 -64 608 -43 90 -159 200 -264 250 -138 68 -216 84 -419 88 -120 2 -203
-1 -265 -11z m503 -1035 l62 -12 0 -133 0 -133 -51 -46 c-131 -118 -339 -163
-459 -101 -84 43 -132 153 -110 251 21 94 77 148 188 180 56 16 272 12 370 -6z"/>
<path d="M16774 1845 c-140 -30 -286 -114 -378 -216 -25 -28 -46 -47 -46 -43
0 11 -28 181 -35 212 -5 22 -7 22 -185 22 l-180 0 0 -885 0 -885 220 0 220 0
0 609 0 609 70 66 c79 74 159 119 252 141 136 32 246 11 315 -61 78 -80 76
-68 81 -756 l3 -608 220 0 220 0 -4 663 c-4 736 -3 720 -73 859 -69 138 -206
239 -369 273 -86 18 -249 18 -331 0z"/>
<path d="M19816 1845 c-167 -32 -310 -107 -431 -230 -172 -172 -248 -383 -248
-685 0 -171 14 -258 64 -394 131 -358 458 -556 884 -533 485 27 797 356 822
867 16 339 -93 628 -299 799 -78 64 -217 134 -323 162 -106 28 -353 35 -469
14z m378 -383 c83 -39 145 -103 191 -195 47 -96 65 -186 65 -335 0 -202 -43
-339 -139 -444 -188 -205 -525 -151 -651 105 -46 94 -60 158 -67 297 -14 311
105 537 316 597 28 8 81 11 133 9 71 -3 98 -9 152 -34z"/>
<path d="M21916 1844 c-225 -44 -403 -147 -528 -304 -64 -81 -136 -227 -165
-338 -24 -88 -26 -115 -27 -287 -1 -224 16 -312 89 -460 114 -234 306 -374
600 -437 36 -7 126 -12 225 -12 171 1 240 11 382 55 l68 22 0 178 c0 99 -3
179 -6 179 -3 0 -49 -13 -102 -30 -408 -126 -697 -3 -787 335 -24 89 -22 278
4 378 60 232 217 360 458 374 106 7 215 -8 318 -43 38 -13 73 -24 78 -24 4 0
7 80 7 178 l0 178 -67 22 c-159 50 -396 66 -547 36z"/>
<path d="M23380 1850 c-95 -13 -234 -47 -320 -79 l-75 -27 -3 -178 c-2 -167
-1 -178 15 -171 56 24 238 77 312 92 120 24 319 24 387 0 72 -25 137 -70 168
-117 47 -71 78 -251 41 -236 -117 44 -462 55 -600 18 -130 -35 -220 -85 -300
-166 -39 -39 -83 -94 -98 -123 -41 -76 -67 -192 -67 -292 1 -265 136 -459 375
-538 69 -23 97 -26 210 -27 99 0 144 4 190 18 85 25 200 87 270 145 33 27 63
47 67 45 5 -3 8 -20 8 -38 0 -18 3 -54 6 -80 l7 -46 196 0 196 0 -3 417 c-5
914 -5 911 -61 1037 -67 151 -226 271 -436 327 -63 17 -116 22 -250 24 -93 2
-199 0 -235 -5z m436 -1036 l104 -17 0 -129 0 -130 -47 -44 c-63 -58 -190
-121 -271 -133 -96 -15 -181 4 -241 55 -90 75 -96 240 -13 327 77 82 240 106
468 71z"/>
<path d="M25582 1840 c-40 -11 -96 -32 -125 -47 -61 -33 -167 -130 -199 -181
l-22 -36 -19 122 -19 122 -184 0 -184 0 0 -885 0 -885 220 0 220 0 0 591 0
590 57 60 c98 103 252 162 459 175 l104 7 -2 191 -3 191 -115 2 c-87 2 -133
-2 -188 -17z"/>
<path d="M26740 1853 c-14 -2 -58 -13 -99 -24 -321 -86 -540 -358 -591 -737
-18 -127 -8 -372 19 -477 113 -451 500 -665 1091 -604 122 12 271 41 358 70
l62 21 0 175 0 175 -22 -5 c-13 -3 -75 -19 -138 -35 -157 -41 -288 -56 -429
-49 -121 6 -193 23 -273 63 -121 61 -201 179 -223 327 l-7 47 576 0 576 0 0
153 c0 86 -6 191 -15 243 -71 437 -333 668 -753 663 -59 -1 -118 -4 -132 -6z
m230 -355 c113 -35 196 -154 213 -305 l5 -43 -339 0 c-285 0 -339 2 -339 14 0
8 8 41 19 75 67 214 246 320 441 259z"/>
<path d="M0 1204 c0 -686 1 -694 68 -834 51 -108 166 -220 282 -277 137 -68
233 -87 440 -87 148 0 189 3 263 22 270 68 440 222 513 467 16 54 18 120 21
693 l4 632 -221 0 -220 0 0 -570 c0 -383 -4 -586 -11 -622 -25 -117 -102 -210
-202 -245 -61 -21 -210 -23 -274 -5 -101 30 -185 120 -214 231 -9 33 -13 215
-16 629 l-4 582 -215 0 -214 0 0 -616z"/>
<path d="M15030 935 l0 -885 225 0 225 0 0 885 0 885 -225 0 -225 0 0 -885z"/>
</g>
</svg>
